# xmcd
#
# Track frame offsets:
#	150
#	10950
#	21652
#	33696
#	51167
#	65217
#	80829
#	93747
#	107225
#	120238
#	134505
#	156441
#
# Disc length: 2278 seconds
#
# Revision: 0
# Processed by: cddbd v1.5.2PL0 Copyright (c) Steve Scherf et al.
# Submitted via: audiograbber 1.83.01
#
DISCID=b308e40c
DTITLE=VARIOS - POR SIEMPRE BOLEROS Vol 8
DYEAR=2006
DGENRE=BOLEROS
TTITLE0=SOLAMENTE UNA VEZ - LOS PANCHOS
TTITLE1=FLORES NEGRAS - TITO RODRIGUEZ
TTITLE2=AMOR SIN ESPERANZA - CELIO GONZALES
TTITLE3=DOS ALMAS - LUCHO GATICA
TTITLE4=CUANDO VUELVA A TU LADO - LA CLAVE
TTITLE5=MATECITO DE PLATA - LOS DIAMANTES DEL SOL
TTITLE6=ROSA - PEDRO VARGAS 
TTITLE7=CELOSO - LOS TRES ROMANTICOS 
TTITLE8=CUANDO ESTOY CONTIGO - MONCHO
TTITLE9=ESTOY PERDIDO - TRIO AZUL
TTITLE10=EN MI VIEJO SAN JUAN - JUAN JOSE
TTITLE11=PIENSA EN MI - VOCES DE ORO DE LOS PANCHOS
EXTD=
EXTT0=
EXTT1=
EXTT2=
EXTT3=
EXTT4=
EXTT5=
EXTT6=
EXTT7=
EXTT8=
EXTT9=
EXTT10=
EXTT11=
PLAYORDER=
